<svg xmlns="http://www.w3.org/2000/svg" xmlns:xlink="http://www.w3.org/1999/xlink" width="500" zoomAndPan="magnify" viewBox="0 0 375 374.999991" height="500" preserveAspectRatio="xMidYMid meet" version="1.2"><defs><clipPath id="42dda07e2e"><path d="M 51.910156 93 L 97 93 L 97 233.859375 L 51.910156 233.859375 Z M 51.910156 93 "/></clipPath><clipPath id="1bec1e6830"><path d="M 278.527344 93.492188 L 323.402344 93.492188 L 323.402344 233.851562 L 278.527344 233.851562 Z M 278.527344 93.492188 "/></clipPath><clipPath id="e138d72817"><path d="M 166 61.359375 L 209 61.359375 L 209 108 L 166 108 Z M 166 61.359375 "/></clipPath></defs><g id="f5a10d537c"><path style=" stroke:none;fill-rule:nonzero;fill:#4a87ce;fill-opacity:1;" d="M 144.476562 140.019531 C 141.148438 140.019531 138.042969 140.648438 135.164062 141.910156 C 132.285156 143.167969 129.789062 144.867188 127.675781 147.003906 C 125.5625 149.144531 123.886719 151.652344 122.652344 154.53125 C 121.414062 157.414062 120.792969 160.472656 120.792969 163.714844 C 120.792969 166.953125 121.414062 170.015625 122.652344 172.894531 C 123.886719 175.773438 125.5625 178.285156 127.675781 180.421875 C 129.789062 182.558594 132.285156 184.257812 135.164062 185.519531 C 138.042969 186.777344 141.148438 187.40625 144.476562 187.40625 C 147.761719 187.40625 150.839844 186.777344 153.71875 185.519531 C 156.597656 184.257812 159.105469 182.546875 161.242188 180.386719 C 163.378906 178.226562 165.066406 175.71875 166.304688 172.859375 C 167.539062 170.003906 168.160156 166.953125 168.160156 163.714844 C 168.160156 160.472656 167.539062 157.425781 166.304688 154.566406 C 165.066406 151.707031 163.378906 149.199219 161.242188 147.039062 C 159.105469 144.878906 156.597656 143.167969 153.71875 141.910156 C 150.839844 140.648438 147.761719 140.019531 144.476562 140.019531 Z M 182.257812 163.714844 C 182.257812 174.246094 178.570312 183.15625 171.195312 190.445312 C 163.726562 197.828125 154.820312 201.515625 144.476562 201.515625 C 134.039062 201.515625 125.132812 197.828125 117.757812 190.445312 C 110.382812 183.066406 106.695312 174.152344 106.695312 163.714844 C 106.695312 153.273438 110.382812 144.363281 117.757812 136.980469 C 125.132812 129.601562 134.039062 125.910156 144.476562 125.910156 C 154.820312 125.910156 163.726562 129.601562 171.195312 136.980469 C 174.882812 140.671875 177.636719 144.746094 179.457031 149.199219 C 181.28125 153.65625 182.214844 158.492188 182.257812 163.714844 "/><path style=" stroke:none;fill-rule:nonzero;fill:#4a87ce;fill-opacity:1;" d="M 230.835938 140.019531 C 227.507812 140.019531 224.40625 140.648438 221.527344 141.910156 C 218.648438 143.167969 216.148438 144.867188 214.035156 147.003906 C 211.921875 149.144531 210.246094 151.652344 209.011719 154.53125 C 207.773438 157.414062 207.15625 160.472656 207.15625 163.714844 C 207.15625 166.953125 207.773438 170.015625 209.011719 172.894531 C 210.246094 175.773438 211.921875 178.285156 214.035156 180.421875 C 216.148438 182.558594 218.648438 184.257812 221.527344 185.519531 C 224.40625 186.777344 227.507812 187.40625 230.835938 187.40625 C 234.117188 187.40625 237.199219 186.777344 240.082031 185.519531 C 242.957031 184.257812 245.464844 182.546875 247.601562 180.386719 C 249.738281 178.226562 251.425781 175.71875 252.660156 172.859375 C 253.898438 170.003906 254.519531 166.953125 254.519531 163.714844 C 254.519531 160.472656 253.898438 157.425781 252.660156 154.566406 C 251.425781 151.707031 249.738281 149.199219 247.601562 147.039062 C 245.464844 144.878906 242.957031 143.167969 240.082031 141.910156 C 237.199219 140.648438 234.117188 140.019531 230.835938 140.019531 Z M 268.621094 163.714844 C 268.621094 174.246094 264.929688 183.15625 257.554688 190.445312 C 250.085938 197.828125 241.179688 201.515625 230.835938 201.515625 C 220.398438 201.515625 211.492188 197.828125 204.121094 190.445312 C 196.742188 183.066406 193.054688 174.152344 193.054688 163.714844 C 193.054688 153.273438 196.742188 144.363281 204.121094 136.980469 C 211.492188 129.601562 220.398438 125.910156 230.835938 125.910156 C 241.179688 125.910156 250.085938 129.601562 257.554688 136.980469 C 261.242188 140.671875 263.996094 144.746094 265.820312 149.199219 C 267.640625 153.65625 268.570312 158.492188 268.621094 163.714844 "/><g clip-rule="nonzero" clip-path="url(#42dda07e2e)"><path style=" stroke:none;fill-rule:nonzero;fill:#211d1d;fill-opacity:1;" d="M 89.691406 93.574219 C 91.714844 93.574219 93.390625 94.261719 94.71875 95.632812 C 96.042969 97.007812 96.707031 98.683594 96.707031 100.660156 C 96.707031 102.6875 96.042969 104.363281 94.71875 105.691406 C 93.390625 107.019531 91.714844 107.683594 89.691406 107.683594 C 84.113281 107.683594 81.324219 110.472656 81.324219 116.054688 L 81.324219 148.320312 C 81.324219 154.800781 79.839844 159.933594 76.871094 163.714844 C 79.839844 167.492188 81.324219 172.625 81.324219 179.105469 L 81.324219 211.371094 C 81.324219 216.953125 84.113281 219.746094 89.691406 219.746094 C 91.714844 219.746094 93.390625 220.40625 94.71875 221.738281 C 96.042969 223.0625 96.707031 224.738281 96.707031 226.765625 C 96.707031 228.789062 96.042969 230.480469 94.71875 231.828125 C 93.390625 233.179688 91.714844 233.851562 89.691406 233.851562 C 74.714844 233.851562 67.222656 226.359375 67.222656 211.371094 L 67.222656 179.105469 C 67.222656 173.523438 64.457031 170.734375 58.925781 170.734375 C 56.902344 170.734375 55.226562 170.070312 53.898438 168.742188 C 52.570312 167.417969 51.910156 165.738281 51.910156 163.714844 C 51.910156 161.6875 52.570312 160.011719 53.898438 158.683594 C 55.226562 157.359375 56.902344 156.691406 58.925781 156.691406 C 64.457031 156.691406 67.222656 153.902344 67.222656 148.320312 L 67.222656 116.054688 C 67.222656 101.066406 74.714844 93.574219 89.691406 93.574219 "/></g><g clip-rule="nonzero" clip-path="url(#1bec1e6830)"><path style=" stroke:none;fill-rule:nonzero;fill:#211d1d;fill-opacity:1;" d="M 308.089844 116.054688 L 308.089844 148.320312 C 308.089844 153.902344 310.855469 156.691406 316.386719 156.691406 C 318.414062 156.691406 320.085938 157.359375 321.414062 158.683594 C 322.742188 160.011719 323.402344 161.6875 323.402344 163.714844 C 323.402344 165.738281 322.742188 167.417969 321.414062 168.742188 C 320.085938 170.070312 318.414062 170.734375 316.386719 170.734375 C 310.855469 170.734375 308.089844 173.523438 308.089844 179.105469 L 308.089844 211.371094 C 308.089844 226.359375 300.601562 233.851562 285.621094 233.851562 C 283.597656 233.851562 281.921875 233.179688 280.59375 231.828125 C 279.269531 230.480469 278.605469 228.789062 278.605469 226.765625 C 278.605469 224.738281 279.269531 223.0625 280.59375 221.738281 C 281.921875 220.40625 283.597656 219.746094 285.621094 219.746094 C 291.199219 219.746094 293.988281 216.953125 293.988281 211.371094 L 293.988281 179.105469 C 293.988281 172.625 295.472656 167.492188 298.441406 163.714844 C 295.472656 159.933594 293.988281 154.800781 293.988281 148.320312 L 293.988281 116.054688 C 293.988281 110.472656 291.199219 107.683594 285.621094 107.683594 C 283.597656 107.683594 281.921875 107.019531 280.59375 105.691406 C 279.269531 104.363281 278.605469 102.6875 278.605469 100.660156 C 278.605469 98.683594 279.269531 97.007812 280.59375 95.632812 C 281.921875 94.261719 283.597656 93.574219 285.621094 93.574219 C 300.601562 93.574219 308.089844 101.066406 308.089844 116.054688 "/></g><g clip-rule="nonzero" clip-path="url(#e138d72817)"><path style=" stroke:none;fill-rule:nonzero;fill:#211d1d;fill-opacity:1;" d="M 208.773438 99.171875 C 208.773438 100.339844 208.546875 101.433594 208.097656 102.445312 C 207.648438 103.457031 207.054688 104.347656 206.3125 105.113281 C 205.570312 105.875 204.679688 106.472656 203.648438 106.898438 C 202.609375 107.328125 201.53125 107.542969 200.410156 107.542969 C 198.335938 107.542969 196.5625 106.820312 195.078125 105.382812 C 193.59375 103.941406 192.378906 102.175781 191.433594 100.082031 C 190.492188 97.988281 189.804688 95.828125 189.378906 93.601562 C 188.949219 91.375 188.734375 89.292969 188.734375 87.355469 C 188.734375 79.390625 192.132812 71.335938 198.921875 63.1875 C 200.136719 61.972656 201.511719 61.367188 203.039062 61.367188 C 204.609375 61.367188 205.960938 61.929688 207.085938 63.054688 C 208.210938 64.179688 208.773438 65.53125 208.773438 67.105469 C 208.773438 67.871094 208.617188 68.65625 208.304688 69.46875 C 206.277344 74.417969 205.265625 79.121094 205.265625 83.578125 C 205.265625 87.808594 206.1875 91.902344 208.03125 95.863281 C 208.527344 96.988281 208.773438 98.089844 208.773438 99.171875 Z M 186.578125 99.171875 C 186.578125 100.339844 186.351562 101.433594 185.902344 102.445312 C 185.453125 103.457031 184.855469 104.347656 184.113281 105.113281 C 183.371094 105.875 182.484375 106.472656 181.449219 106.898438 C 180.414062 107.328125 179.335938 107.542969 178.210938 107.542969 C 176.140625 107.542969 174.367188 106.820312 172.882812 105.382812 C 171.398438 103.941406 170.183594 102.175781 169.238281 100.082031 C 168.292969 97.988281 167.605469 95.828125 167.179688 93.601562 C 166.753906 91.375 166.539062 89.292969 166.539062 87.355469 C 166.539062 79.390625 169.933594 71.335938 176.726562 63.1875 C 177.941406 61.972656 179.3125 61.367188 180.84375 61.367188 C 182.414062 61.367188 183.765625 61.929688 184.890625 63.054688 C 186.015625 64.179688 186.578125 65.53125 186.578125 67.105469 C 186.578125 67.871094 186.417969 68.65625 186.105469 69.46875 C 184.082031 74.417969 183.070312 79.121094 183.070312 83.578125 C 183.070312 87.808594 183.992188 91.902344 185.835938 95.863281 C 186.328125 96.988281 186.578125 98.089844 186.578125 99.171875 "/></g><g style="fill:#4a87ce;fill-opacity:1;"><g transform="translate(37.322351, 294.871145)"><path style="stroke:none" d="M 21.140625 -37.28125 C 24.566406 -37.28125 27.488281 -36.6875 29.90625 -35.5 L 29.90625 -27.078125 L 29.859375 -27.03125 C 28.828125 -28.601562 26.660156 -29.644531 23.359375 -30.15625 C 22.390625 -30.320312 21.160156 -30.40625 19.671875 -30.40625 C 18.191406 -30.40625 16.734375 -30.125 15.296875 -29.5625 C 13.867188 -29.007812 12.695312 -28.21875 11.78125 -27.1875 C 10 -25.1875 9.109375 -22.332031 9.109375 -18.625 C 9.109375 -14.3125 10.238281 -11.101562 12.5 -9 C 14.363281 -7.238281 16.835938 -6.359375 19.921875 -6.359375 C 23.410156 -6.359375 26.238281 -7.101562 28.40625 -8.59375 C 29.1875 -9.125 29.851562 -9.78125 30.40625 -10.5625 L 30.484375 -10.515625 L 30.484375 -2.8125 C 27.679688 -0.476562 23.90625 0.6875 19.15625 0.6875 C 13.5625 0.6875 9.175781 -1.09375 6 -4.65625 C 2.957031 -8.039062 1.4375 -12.535156 1.4375 -18.140625 C 1.4375 -24.066406 3.101562 -28.734375 6.4375 -32.140625 C 9.8125 -35.566406 14.710938 -37.28125 21.140625 -37.28125 Z M 21.140625 -37.28125 "/></g></g><g style="fill:#4a87ce;fill-opacity:1;"><g transform="translate(70.012658, 294.871145)"><path style="stroke:none" d="M 7.734375 -4.34375 C 6.066406 -5.945312 4.75 -7.863281 3.78125 -10.09375 C 2.820312 -12.332031 2.34375 -14.785156 2.34375 -17.453125 C 2.34375 -20.128906 2.789062 -22.660156 3.6875 -25.046875 C 4.582031 -27.429688 5.863281 -29.53125 7.53125 -31.34375 C 9.207031 -33.15625 11.226562 -34.597656 13.59375 -35.671875 C 15.957031 -36.742188 18.609375 -37.28125 21.546875 -37.28125 C 26.609375 -37.28125 30.875 -35.6875 34.34375 -32.5 C 38.050781 -29.082031 39.90625 -24.476562 39.90625 -18.6875 C 39.90625 -13.070312 37.992188 -8.398438 34.171875 -4.671875 C 31.828125 -2.378906 29.03125 -0.800781 25.78125 0.0625 C 24.1875 0.476562 22.320312 0.6875 20.1875 0.6875 C 18.050781 0.6875 15.859375 0.25 13.609375 -0.625 C 11.359375 -1.507812 9.398438 -2.75 7.734375 -4.34375 Z M 9.984375 -17.828125 C 9.984375 -16.117188 10.269531 -14.550781 10.84375 -13.125 C 11.414062 -11.695312 12.203125 -10.46875 13.203125 -9.4375 C 15.347656 -7.269531 18.113281 -6.1875 21.5 -6.1875 C 24.707031 -6.1875 27.28125 -7.222656 29.21875 -9.296875 C 31.207031 -11.441406 32.203125 -14.367188 32.203125 -18.078125 C 32.203125 -21.566406 31.253906 -24.472656 29.359375 -26.796875 C 27.328125 -29.296875 24.539062 -30.546875 21 -30.546875 C 17.5625 -30.546875 14.835938 -29.28125 12.828125 -26.75 C 10.929688 -24.382812 9.984375 -21.410156 9.984375 -17.828125 Z M 9.984375 -17.828125 "/></g></g><g style="fill:#4a87ce;fill-opacity:1;"><g transform="translate(112.251398, 294.871145)"><path style="stroke:none" d="M 13.65625 0.6875 C 10.675781 0.6875 7.875 0.445312 5.25 -0.03125 L 5.25 -36.84375 C 7.675781 -37.132812 10.488281 -37.28125 13.6875 -37.28125 C 16.894531 -37.28125 19.796875 -36.84375 22.390625 -35.96875 C 24.984375 -35.101562 27.148438 -33.863281 28.890625 -32.25 C 32.410156 -29.019531 34.171875 -24.5 34.171875 -18.6875 C 34.171875 -12.175781 32.210938 -7.234375 28.296875 -3.859375 C 24.765625 -0.828125 19.882812 0.6875 13.65625 0.6875 Z M 12.40625 -6.03125 C 13.601562 -5.8125 14.796875 -5.703125 15.984375 -5.703125 C 17.179688 -5.703125 18.46875 -5.929688 19.84375 -6.390625 C 21.21875 -6.859375 22.410156 -7.59375 23.421875 -8.59375 C 25.585938 -10.675781 26.671875 -13.71875 26.671875 -17.71875 C 26.671875 -24.289062 24.273438 -28.328125 19.484375 -29.828125 C 17.898438 -30.328125 16.070312 -30.578125 14 -30.578125 L 13.265625 -30.578125 C 12.984375 -30.578125 12.695312 -30.566406 12.40625 -30.546875 Z M 12.40625 -6.03125 "/></g></g><g style="fill:#4a87ce;fill-opacity:1;"><g transform="translate(149.784714, 294.871145)"><path style="stroke:none" d="M 23.140625 -6.609375 C 24.273438 -6.609375 25.066406 -6.71875 25.515625 -6.9375 L 25.625 -6.90625 L 25.34375 0 L 4.734375 0 L 4.734375 -36.796875 C 5.222656 -36.753906 5.773438 -36.722656 6.390625 -36.703125 L 8.3125 -36.65625 C 9.59375 -36.613281 10.988281 -36.59375 12.5 -36.59375 C 16.695312 -36.59375 20.847656 -36.671875 24.953125 -36.828125 C 24.753906 -35.210938 24.65625 -33.054688 24.65625 -30.359375 C 24.65625 -30.054688 24.675781 -29.832031 24.71875 -29.6875 L 24.65625 -29.609375 C 23.695312 -29.890625 22.335938 -30.03125 20.578125 -30.03125 L 11.921875 -30.03125 L 11.921875 -23 L 18.4375 -23 C 20.457031 -23 21.671875 -23.054688 22.078125 -23.171875 L 22.15625 -16.375 C 21.269531 -16.46875 20.128906 -16.515625 18.734375 -16.515625 L 11.921875 -16.515625 L 11.921875 -6.609375 Z M 23.140625 -6.609375 "/></g></g><g style="fill:#4a87ce;fill-opacity:1;"><g transform="translate(178.017252, 294.871145)"><path style="stroke:none" d=""/></g></g><g style="fill:#4a87ce;fill-opacity:1;"><g transform="translate(196.701358, 294.871145)"><path style="stroke:none" d="M 27.859375 -2.6875 C 26.515625 -1.613281 24.769531 -0.78125 22.625 -0.1875 C 20.476562 0.394531 17.835938 0.6875 14.703125 0.6875 C 11.578125 0.6875 8.253906 0.398438 4.734375 -0.171875 L 4.734375 -36.4375 C 8.296875 -37 11.382812 -37.28125 14 -37.28125 C 16.613281 -37.28125 18.757812 -37.03125 20.4375 -36.53125 C 22.113281 -36.039062 23.484375 -35.375 24.546875 -34.53125 C 26.640625 -32.90625 27.6875 -30.789062 27.6875 -28.1875 C 27.6875 -25.59375 26.738281 -23.441406 24.84375 -21.734375 C 27.082031 -21.035156 28.816406 -19.71875 30.046875 -17.78125 C 31.171875 -16.03125 31.734375 -14.097656 31.734375 -11.984375 C 31.734375 -9.867188 31.425781 -8.054688 30.8125 -6.546875 C 30.195312 -5.046875 29.210938 -3.757812 27.859375 -2.6875 Z M 12.03125 -22.765625 C 12.800781 -22.628906 13.765625 -22.5625 14.921875 -22.5625 C 16.078125 -22.5625 17.023438 -22.710938 17.765625 -23.015625 C 18.503906 -23.316406 19.078125 -23.695312 19.484375 -24.15625 C 20.140625 -24.914062 20.46875 -25.960938 20.46875 -27.296875 C 20.46875 -30.109375 18.816406 -31.515625 15.515625 -31.515625 C 14.117188 -31.515625 12.957031 -31.457031 12.03125 -31.34375 Z M 16.09375 -16.875 C 14.550781 -16.875 13.195312 -16.769531 12.03125 -16.5625 L 12.03125 -5.75 C 13.3125 -5.414062 14.65625 -5.25 16.0625 -5.25 C 17.476562 -5.25 18.722656 -5.421875 19.796875 -5.765625 C 20.867188 -6.109375 21.773438 -6.570312 22.515625 -7.15625 C 23.992188 -8.363281 24.734375 -9.90625 24.734375 -11.78125 C 24.734375 -15.175781 21.851562 -16.875 16.09375 -16.875 Z M 16.09375 -16.875 "/></g></g><g style="fill:#4a87ce;fill-opacity:1;"><g transform="translate(229.63932, 294.871145)"><path style="stroke:none" d="M 16.5625 -14.234375 C 16.007812 -14.191406 15.421875 -14.171875 14.796875 -14.171875 C 14.179688 -14.171875 13.257812 -14.21875 12.03125 -14.3125 L 12.03125 0 L 4.734375 0 L 4.734375 -36.796875 C 7.304688 -37.117188 10.460938 -37.28125 14.203125 -37.28125 C 19.296875 -37.28125 23.09375 -36.335938 25.59375 -34.453125 C 28.101562 -32.578125 29.359375 -29.679688 29.359375 -25.765625 C 29.359375 -22.710938 28.210938 -20.101562 25.921875 -17.9375 C 25.171875 -17.238281 24.3125 -16.632812 23.34375 -16.125 L 28.953125 -4.296875 C 30.046875 -1.859375 30.890625 -0.40625 31.484375 0.0625 L 31.34375 0.1875 C 29.5625 -0.101562 26.765625 -0.09375 22.953125 0.21875 Z M 14.71875 -30.796875 C 13.78125 -30.796875 12.882812 -30.75 12.03125 -30.65625 L 12.03125 -20.140625 C 12.925781 -20.015625 13.976562 -19.953125 15.1875 -19.953125 C 16.394531 -19.953125 17.410156 -20.054688 18.234375 -20.265625 C 19.066406 -20.472656 19.785156 -20.800781 20.390625 -21.25 C 21.691406 -22.21875 22.34375 -23.671875 22.34375 -25.609375 C 22.34375 -27.554688 21.664062 -28.925781 20.3125 -29.71875 C 19.039062 -30.4375 17.175781 -30.796875 14.71875 -30.796875 Z M 14.71875 -30.796875 "/></g></g><g style="fill:#4a87ce;fill-opacity:1;"><g transform="translate(262.467214, 294.871145)"><path style="stroke:none" d="M 5.59375 -36.703125 C 7.425781 -36.628906 8.535156 -36.59375 8.921875 -36.59375 L 10.890625 -36.59375 C 11.867188 -36.59375 12.648438 -36.671875 13.234375 -36.828125 L 13.203125 0 L 5.59375 0 Z M 5.59375 -36.703125 "/></g></g><g style="fill:#4a87ce;fill-opacity:1;"><g transform="translate(281.288906, 294.871145)"><path style="stroke:none" d="M 23.140625 -6.609375 C 24.273438 -6.609375 25.066406 -6.71875 25.515625 -6.9375 L 25.625 -6.90625 L 25.34375 0 L 4.734375 0 L 4.734375 -36.796875 C 5.222656 -36.753906 5.773438 -36.722656 6.390625 -36.703125 L 8.3125 -36.65625 C 9.59375 -36.613281 10.988281 -36.59375 12.5 -36.59375 C 16.695312 -36.59375 20.847656 -36.671875 24.953125 -36.828125 C 24.753906 -35.210938 24.65625 -33.054688 24.65625 -30.359375 C 24.65625 -30.054688 24.675781 -29.832031 24.71875 -29.6875 L 24.65625 -29.609375 C 23.695312 -29.890625 22.335938 -30.03125 20.578125 -30.03125 L 11.921875 -30.03125 L 11.921875 -23 L 18.4375 -23 C 20.457031 -23 21.671875 -23.054688 22.078125 -23.171875 L 22.15625 -16.375 C 21.269531 -16.46875 20.128906 -16.515625 18.734375 -16.515625 L 11.921875 -16.515625 L 11.921875 -6.609375 Z M 23.140625 -6.609375 "/></g></g><g style="fill:#4a87ce;fill-opacity:1;"><g transform="translate(309.521444, 294.871145)"><path style="stroke:none" d="M 24.03125 -15.828125 C 23.144531 -15.921875 22.003906 -15.96875 20.609375 -15.96875 L 12.28125 -15.96875 L 12.28125 0 L 4.734375 0 L 4.734375 -36.796875 C 5.222656 -36.753906 5.789062 -36.722656 6.4375 -36.703125 L 8.46875 -36.65625 C 9.863281 -36.613281 11.316406 -36.59375 12.828125 -36.59375 C 17.335938 -36.59375 21.648438 -36.671875 25.765625 -36.828125 C 25.554688 -35.210938 25.453125 -33.054688 25.453125 -30.359375 C 25.453125 -30.054688 25.472656 -29.832031 25.515625 -29.6875 L 25.453125 -29.609375 C 24.484375 -29.890625 23.125 -30.03125 21.375 -30.03125 L 12.28125 -30.03125 L 12.28125 -22.453125 L 20.3125 -22.453125 C 22.332031 -22.453125 23.539062 -22.507812 23.9375 -22.625 Z M 24.03125 -15.828125 "/></g></g></g></svg>